<svg width="20.000000" height="20.000000" viewBox="0 0 20 20" fill="none" xmlns="http://www.w3.org/2000/svg" xmlns:xlink="http://www.w3.org/1999/xlink">
	<defs>
		<clipPath id="clip2_1110">
			<rect id="right-arrow 1" rx="0.000000" width="19.000000" height="19.000000" transform="translate(0.500000 0.500000)" fill="white" fill-opacity="0"/>
		</clipPath>
	</defs>
	<rect id="right-arrow 1" rx="0.000000" width="19.000000" height="19.000000" transform="translate(0.500000 0.500000)" fill="#FFFFFF" fill-opacity="0"/>
	<g clip-path="url(#clip2_1110)">
		<path id="Vector" d="M19.58 9.34L1.01 0.77C0.71 0.64 0.36 0.72 0.16 0.97C-0.05 1.23 -0.06 1.59 0.14 1.85L6.25 9.99L0.14 18.14C-0.06 18.4 -0.05 18.76 0.15 19.01C0.29 19.19 0.5 19.28 0.71 19.28C0.81 19.28 0.91 19.26 1.01 19.21L19.58 10.64C19.83 10.53 20 10.27 20 9.99C20 9.72 19.83 9.46 19.58 9.34Z" fill="#FFFFFF" fill-opacity="1.000000" fill-rule="nonzero"/>
	</g>
</svg>
