<svg width="20.000000" height="17.757812" viewBox="0 0 20 17.7578" fill="none" xmlns="http://www.w3.org/2000/svg" xmlns:xlink="http://www.w3.org/1999/xlink">
	<defs/>
	<path id="Vector" d="M17.69 2.6L17.69 4.44C17.56 4.21 17.42 3.99 17.26 3.77C16.73 3.01 16.08 2.34 15.34 1.78C14.58 1.21 13.75 0.77 12.86 0.47C11.94 0.15 10.98 0 10 0C8.97 0 7.97 0.17 7.01 0.51C6.09 0.84 5.23 1.32 4.46 1.93C3.7 2.54 3.05 3.26 2.52 4.08C1.99 4.92 1.6 5.83 1.37 6.79C1.22 7.41 1.6 8.03 2.21 8.18C2.31 8.2 2.4 8.21 2.49 8.21C3 8.21 3.48 7.86 3.6 7.33C3.94 5.92 4.76 4.64 5.9 3.73C6.47 3.27 7.1 2.92 7.79 2.68C8.5 2.42 9.24 2.3 10 2.3C11.44 2.3 12.8 2.75 13.95 3.62C14.73 4.2 15.37 4.96 15.82 5.81L14.54 5.81C13.91 5.81 13.39 6.33 13.39 6.96C13.39 7.6 13.91 8.11 14.54 8.11L18.84 8.11C19.48 8.11 20 7.6 20 6.96L20 2.6C20 1.97 19.48 1.45 18.84 1.45C18.21 1.45 17.69 1.97 17.69 2.6Z" fill="#FFFFFF" fill-opacity="1.000000" fill-rule="nonzero"/>
	<path id="Vector" d="M1.15 16.3C1.78 16.3 2.3 15.78 2.3 15.15L2.3 13.3C2.98 14.49 3.94 15.51 5.1 16.28C6.55 17.24 8.24 17.75 9.99 17.75C9.99 17.75 9.99 17.75 9.99 17.75C9.99 17.75 9.99 17.75 10 17.75C10 17.75 10 17.75 10 17.75C10 17.75 10 17.75 10 17.75C11.02 17.75 12.02 17.58 12.97 17.24C13.9 16.91 14.76 16.43 15.53 15.82C16.29 15.21 16.94 14.49 17.47 13.67C18 12.83 18.39 11.92 18.62 10.96C18.77 10.34 18.39 9.72 17.77 9.57C17.16 9.42 16.54 9.8 16.39 10.42C16.05 11.83 15.23 13.11 14.09 14.02C13.52 14.47 12.89 14.83 12.2 15.07C11.5 15.32 10.75 15.45 10 15.45C8.7 15.45 7.44 15.07 6.37 14.36C5.44 13.75 4.69 12.91 4.18 11.94L5.45 11.94C6.08 11.94 6.6 11.42 6.6 10.79C6.6 10.15 6.08 9.63 5.45 9.63L1.15 9.63C0.51 9.63 0 10.15 0 10.79L0 15.15C0 15.78 0.51 16.3 1.15 16.3Z" fill="#FFFFFF" fill-opacity="1.000000" fill-rule="nonzero"/>
</svg>
